<mxfile host="Electron" agent="Mozilla/5.0 (Windows NT 10.0; Win64; x64) AppleWebKit/537.36 (KHTML, like Gecko) draw.io/24.7.5 Chrome/126.0.6478.183 Electron/31.3.0 Safari/537.36" version="24.7.5">
  <diagram name="Use Case Diagram" id="FgglNel2U1L5TTHVHAgJ">
    <mxGraphModel dx="880" dy="572" grid="0" gridSize="10" guides="1" tooltips="1" connect="1" arrows="1" fold="1" page="0" pageScale="1" pageWidth="850" pageHeight="1100" math="0" shadow="0">
      <root>
        <mxCell id="0" />
        <mxCell id="1" parent="0" />
        <mxCell id="YS5-fEkslZxsQK353Ww7-88" value="" style="rounded=0;whiteSpace=wrap;html=1;fillColor=none;" parent="1" vertex="1">
          <mxGeometry x="237" y="212" width="580" height="1001" as="geometry" />
        </mxCell>
        <mxCell id="b4xgwTWH8p54jYo2uctj-25" value="&lt;font style=&quot;font-size: 14px;&quot;&gt;Report Complaint&lt;/font&gt;" style="ellipse;whiteSpace=wrap;html=1;fillColor=none;strokeWidth=2;" parent="1" vertex="1">
          <mxGeometry x="371" y="256" width="120" height="80" as="geometry" />
        </mxCell>
        <mxCell id="YS5-fEkslZxsQK353Ww7-6" value="&amp;lt;&amp;lt;actor&amp;gt;&amp;gt;&lt;br&gt;&lt;br&gt;&lt;b&gt;Departrment&lt;/b&gt;" style="html=1;align=center;verticalAlign=middle;dashed=0;whiteSpace=wrap;" parent="1" vertex="1">
          <mxGeometry x="94" y="1001" width="80" height="52" as="geometry" />
        </mxCell>
        <mxCell id="YS5-fEkslZxsQK353Ww7-9" value="&lt;font style=&quot;font-size: 14px;&quot;&gt;Track Complaint Status&lt;/font&gt;" style="ellipse;whiteSpace=wrap;html=1;fillColor=none;strokeWidth=2;" parent="1" vertex="1">
          <mxGeometry x="621" y="226" width="120" height="80" as="geometry" />
        </mxCell>
        <mxCell id="YS5-fEkslZxsQK353Ww7-10" value="&lt;font style=&quot;font-size: 14px;&quot;&gt;Report Anonymously&lt;/font&gt;" style="ellipse;whiteSpace=wrap;html=1;fillColor=none;strokeWidth=2;" parent="1" vertex="1">
          <mxGeometry x="621" y="326" width="120" height="80" as="geometry" />
        </mxCell>
        <mxCell id="YS5-fEkslZxsQK353Ww7-11" value="&lt;font style=&quot;font-size: 14px;&quot;&gt;&amp;lt;&amp;lt;include&amp;gt;&amp;gt;&lt;/font&gt;" style="html=1;verticalAlign=bottom;labelBackgroundColor=none;endArrow=open;endFill=0;dashed=1;rounded=0;fontSize=12;strokeWidth=2;exitX=1;exitY=0;exitDx=0;exitDy=0;entryX=0;entryY=0.629;entryDx=0;entryDy=0;entryPerimeter=0;" parent="1" source="b4xgwTWH8p54jYo2uctj-25" target="YS5-fEkslZxsQK353Ww7-9" edge="1">
          <mxGeometry width="160" relative="1" as="geometry">
            <mxPoint x="474" y="258" as="sourcePoint" />
            <mxPoint x="634" y="258" as="targetPoint" />
          </mxGeometry>
        </mxCell>
        <mxCell id="YS5-fEkslZxsQK353Ww7-13" value="&amp;lt;&amp;lt;extend&amp;gt;&amp;gt;" style="edgeStyle=none;html=1;startArrow=open;endArrow=none;startSize=12;verticalAlign=bottom;dashed=1;labelBackgroundColor=none;rounded=0;fontSize=14;strokeWidth=2;exitX=1;exitY=1;exitDx=0;exitDy=0;" parent="1" source="b4xgwTWH8p54jYo2uctj-25" target="YS5-fEkslZxsQK353Ww7-10" edge="1">
          <mxGeometry width="160" relative="1" as="geometry">
            <mxPoint x="343" y="476" as="sourcePoint" />
            <mxPoint x="503" y="476" as="targetPoint" />
          </mxGeometry>
        </mxCell>
        <mxCell id="YS5-fEkslZxsQK353Ww7-14" value="&lt;font style=&quot;font-size: 14px;&quot;&gt;Track Complaint History&lt;/font&gt;" style="ellipse;whiteSpace=wrap;html=1;fillColor=none;strokeWidth=2;" parent="1" vertex="1">
          <mxGeometry x="314" y="356" width="119" height="65" as="geometry" />
        </mxCell>
        <mxCell id="YS5-fEkslZxsQK353Ww7-15" value="&lt;font style=&quot;font-size: 14px;&quot;&gt;View Representative Stats&lt;/font&gt;" style="ellipse;whiteSpace=wrap;html=1;fillColor=none;strokeWidth=2;" parent="1" vertex="1">
          <mxGeometry x="512" y="396" width="120" height="80" as="geometry" />
        </mxCell>
        <mxCell id="YS5-fEkslZxsQK353Ww7-16" value="&lt;font style=&quot;font-size: 14px;&quot;&gt;Participate in Surveys&lt;/font&gt;" style="ellipse;whiteSpace=wrap;html=1;fillColor=none;strokeWidth=2;" parent="1" vertex="1">
          <mxGeometry x="402" y="436" width="120" height="80" as="geometry" />
        </mxCell>
        <mxCell id="YS5-fEkslZxsQK353Ww7-17" value="&lt;font style=&quot;font-size: 14px;&quot;&gt;Attend virtual Meetups&lt;/font&gt;" style="ellipse;whiteSpace=wrap;html=1;fillColor=none;strokeWidth=2;" parent="1" vertex="1">
          <mxGeometry x="487" y="502" width="120" height="80" as="geometry" />
        </mxCell>
        <mxCell id="YS5-fEkslZxsQK353Ww7-18" value="&lt;font style=&quot;font-size: 14px;&quot;&gt;Provide Feedback&lt;/font&gt;" style="ellipse;whiteSpace=wrap;html=1;fillColor=none;strokeWidth=2;" parent="1" vertex="1">
          <mxGeometry x="371" y="538" width="120" height="80" as="geometry" />
        </mxCell>
        <mxCell id="YS5-fEkslZxsQK353Ww7-20" value="" style="endArrow=classic;html=1;rounded=0;strokeWidth=2;exitX=1;exitY=0.5;exitDx=0;exitDy=0;entryX=0;entryY=0.5;entryDx=0;entryDy=0;" parent="1" source="YS5-fEkslZxsQK353Ww7-22" target="b4xgwTWH8p54jYo2uctj-25" edge="1">
          <mxGeometry width="50" height="50" relative="1" as="geometry">
            <mxPoint x="398" y="483" as="sourcePoint" />
            <mxPoint x="448" y="433" as="targetPoint" />
          </mxGeometry>
        </mxCell>
        <mxCell id="YS5-fEkslZxsQK353Ww7-25" value="" style="endArrow=classic;html=1;rounded=0;strokeWidth=2;exitX=1;exitY=0.5;exitDx=0;exitDy=0;entryX=0;entryY=0.5;entryDx=0;entryDy=0;" parent="1" source="YS5-fEkslZxsQK353Ww7-22" target="YS5-fEkslZxsQK353Ww7-14" edge="1">
          <mxGeometry width="50" height="50" relative="1" as="geometry">
            <mxPoint x="188" y="441" as="sourcePoint" />
            <mxPoint x="381" y="326" as="targetPoint" />
          </mxGeometry>
        </mxCell>
        <mxCell id="YS5-fEkslZxsQK353Ww7-29" value="" style="endArrow=classic;html=1;rounded=0;strokeWidth=2;entryX=0.007;entryY=0.417;entryDx=0;entryDy=0;entryPerimeter=0;" parent="1" target="YS5-fEkslZxsQK353Ww7-15" edge="1">
          <mxGeometry width="50" height="50" relative="1" as="geometry">
            <mxPoint x="179" y="430" as="sourcePoint" />
            <mxPoint x="315" y="400" as="targetPoint" />
          </mxGeometry>
        </mxCell>
        <mxCell id="YS5-fEkslZxsQK353Ww7-30" value="" style="endArrow=classic;html=1;rounded=0;strokeWidth=2;entryX=0;entryY=0.5;entryDx=0;entryDy=0;exitX=1;exitY=0.5;exitDx=0;exitDy=0;" parent="1" source="YS5-fEkslZxsQK353Ww7-22" target="YS5-fEkslZxsQK353Ww7-16" edge="1">
          <mxGeometry width="50" height="50" relative="1" as="geometry">
            <mxPoint x="189" y="440" as="sourcePoint" />
            <mxPoint x="523" y="439" as="targetPoint" />
          </mxGeometry>
        </mxCell>
        <mxCell id="YS5-fEkslZxsQK353Ww7-31" value="" style="endArrow=classic;html=1;rounded=0;strokeWidth=2;entryX=0;entryY=0.5;entryDx=0;entryDy=0;exitX=1;exitY=0.5;exitDx=0;exitDy=0;" parent="1" source="YS5-fEkslZxsQK353Ww7-22" target="YS5-fEkslZxsQK353Ww7-17" edge="1">
          <mxGeometry width="50" height="50" relative="1" as="geometry">
            <mxPoint x="188" y="441" as="sourcePoint" />
            <mxPoint x="412" y="486" as="targetPoint" />
          </mxGeometry>
        </mxCell>
        <mxCell id="YS5-fEkslZxsQK353Ww7-32" value="" style="endArrow=classic;html=1;rounded=0;strokeWidth=2;exitX=1;exitY=0.5;exitDx=0;exitDy=0;" parent="1" source="YS5-fEkslZxsQK353Ww7-22" target="YS5-fEkslZxsQK353Ww7-18" edge="1">
          <mxGeometry width="50" height="50" relative="1" as="geometry">
            <mxPoint x="188" y="441" as="sourcePoint" />
            <mxPoint x="497" y="552" as="targetPoint" />
          </mxGeometry>
        </mxCell>
        <mxCell id="YS5-fEkslZxsQK353Ww7-33" value="&lt;font style=&quot;font-size: 14px;&quot;&gt;Create Surveys&lt;/font&gt;" style="ellipse;whiteSpace=wrap;html=1;fillColor=none;strokeWidth=2;" parent="1" vertex="1">
          <mxGeometry x="305" y="616" width="120" height="80" as="geometry" />
        </mxCell>
        <mxCell id="YS5-fEkslZxsQK353Ww7-42" value="" style="group" parent="1" vertex="1" connectable="0">
          <mxGeometry x="128" y="403" width="50" height="60" as="geometry" />
        </mxCell>
        <mxCell id="YS5-fEkslZxsQK353Ww7-1" value="&lt;b&gt;Constituent&lt;/b&gt;" style="shape=umlActor;verticalLabelPosition=bottom;verticalAlign=top;html=1;outlineConnect=0;container=0;" parent="YS5-fEkslZxsQK353Ww7-42" vertex="1">
          <mxGeometry width="30" height="60" as="geometry" />
        </mxCell>
        <mxCell id="YS5-fEkslZxsQK353Ww7-22" value="" style="shape=ellipse;html=1;sketch=0;strokeWidth=2;strokeColor=none;container=0;" parent="YS5-fEkslZxsQK353Ww7-42" vertex="1">
          <mxGeometry x="40" y="23" width="10" height="10" as="geometry" />
        </mxCell>
        <mxCell id="YS5-fEkslZxsQK353Ww7-43" value="" style="group;fillColor=none;fillStyle=solid;" parent="1" vertex="1" connectable="0">
          <mxGeometry x="128" y="733" width="50" height="60" as="geometry" />
        </mxCell>
        <mxCell id="YS5-fEkslZxsQK353Ww7-44" value="&lt;b&gt;Representative&lt;/b&gt;" style="shape=umlActor;verticalLabelPosition=bottom;verticalAlign=top;html=1;outlineConnect=0;container=0;" parent="YS5-fEkslZxsQK353Ww7-43" vertex="1">
          <mxGeometry width="30" height="60" as="geometry" />
        </mxCell>
        <mxCell id="YS5-fEkslZxsQK353Ww7-45" value="" style="shape=ellipse;html=1;sketch=0;strokeWidth=2;strokeColor=none;container=0;" parent="YS5-fEkslZxsQK353Ww7-43" vertex="1">
          <mxGeometry x="40" y="23" width="10" height="10" as="geometry" />
        </mxCell>
        <mxCell id="YS5-fEkslZxsQK353Ww7-47" value="" style="endArrow=classic;html=1;rounded=0;strokeWidth=2;exitX=1;exitY=0.5;exitDx=0;exitDy=0;entryX=0;entryY=0.5;entryDx=0;entryDy=0;" parent="1" source="YS5-fEkslZxsQK353Ww7-45" target="YS5-fEkslZxsQK353Ww7-33" edge="1">
          <mxGeometry width="50" height="50" relative="1" as="geometry">
            <mxPoint x="188" y="621" as="sourcePoint" />
            <mxPoint x="396" y="742" as="targetPoint" />
          </mxGeometry>
        </mxCell>
        <mxCell id="YS5-fEkslZxsQK353Ww7-48" value="&lt;font style=&quot;font-size: 14px;&quot;&gt;View Survey Result&lt;/font&gt;" style="ellipse;whiteSpace=wrap;html=1;fillColor=none;strokeWidth=2;" parent="1" vertex="1">
          <mxGeometry x="615" y="582" width="120" height="80" as="geometry" />
        </mxCell>
        <mxCell id="YS5-fEkslZxsQK353Ww7-49" value="&lt;font style=&quot;font-size: 14px;&quot;&gt;&amp;lt;&amp;lt;include&amp;gt;&amp;gt;&lt;/font&gt;" style="html=1;verticalAlign=bottom;labelBackgroundColor=none;endArrow=open;endFill=0;dashed=1;rounded=0;fontSize=12;strokeWidth=2;exitX=1;exitY=0.5;exitDx=0;exitDy=0;entryX=0;entryY=0.629;entryDx=0;entryDy=0;entryPerimeter=0;" parent="1" source="YS5-fEkslZxsQK353Ww7-33" target="YS5-fEkslZxsQK353Ww7-48" edge="1">
          <mxGeometry width="160" relative="1" as="geometry">
            <mxPoint x="477" y="778" as="sourcePoint" />
            <mxPoint x="638" y="748" as="targetPoint" />
          </mxGeometry>
        </mxCell>
        <mxCell id="YS5-fEkslZxsQK353Ww7-50" value="&lt;font style=&quot;font-size: 14px;&quot;&gt;Arrange virtual Meetups&lt;/font&gt;" style="ellipse;whiteSpace=wrap;html=1;fillColor=none;strokeWidth=2;" parent="1" vertex="1">
          <mxGeometry x="406" y="670" width="120" height="80" as="geometry" />
        </mxCell>
        <mxCell id="YS5-fEkslZxsQK353Ww7-51" value="" style="endArrow=classic;html=1;rounded=0;strokeWidth=2;exitX=1;exitY=0.5;exitDx=0;exitDy=0;entryX=0.013;entryY=0.552;entryDx=0;entryDy=0;entryPerimeter=0;" parent="1" source="YS5-fEkslZxsQK353Ww7-45" target="YS5-fEkslZxsQK353Ww7-50" edge="1">
          <mxGeometry width="50" height="50" relative="1" as="geometry">
            <mxPoint x="188" y="771" as="sourcePoint" />
            <mxPoint x="315" y="666" as="targetPoint" />
          </mxGeometry>
        </mxCell>
        <mxCell id="YS5-fEkslZxsQK353Ww7-54" value="&lt;span style=&quot;font-size: 14px;&quot;&gt;Configure Assistant&lt;/span&gt;" style="ellipse;whiteSpace=wrap;html=1;fillColor=none;strokeWidth=2;" parent="1" vertex="1">
          <mxGeometry x="522.64" y="847" width="109" height="66" as="geometry" />
        </mxCell>
        <mxCell id="YS5-fEkslZxsQK353Ww7-57" value="&lt;font style=&quot;font-size: 14px;&quot;&gt;Post Event Calender&lt;/font&gt;" style="ellipse;whiteSpace=wrap;html=1;fillColor=none;strokeWidth=2;" parent="1" vertex="1">
          <mxGeometry x="519" y="713" width="120" height="80" as="geometry" />
        </mxCell>
        <mxCell id="YS5-fEkslZxsQK353Ww7-58" value="&lt;font style=&quot;font-size: 14px;&quot;&gt;Run Awarenes Compaign&lt;/font&gt;" style="ellipse;whiteSpace=wrap;html=1;fillColor=none;strokeWidth=2;" parent="1" vertex="1">
          <mxGeometry x="399" y="770" width="120" height="80" as="geometry" />
        </mxCell>
        <mxCell id="YS5-fEkslZxsQK353Ww7-59" value="" style="endArrow=classic;html=1;rounded=0;strokeWidth=2;exitX=1;exitY=0.5;exitDx=0;exitDy=0;entryX=0.014;entryY=0.621;entryDx=0;entryDy=0;entryPerimeter=0;" parent="1" source="YS5-fEkslZxsQK353Ww7-45" target="YS5-fEkslZxsQK353Ww7-57" edge="1">
          <mxGeometry width="50" height="50" relative="1" as="geometry">
            <mxPoint x="182" y="761" as="sourcePoint" />
            <mxPoint x="408" y="730" as="targetPoint" />
          </mxGeometry>
        </mxCell>
        <mxCell id="YS5-fEkslZxsQK353Ww7-60" value="" style="endArrow=classic;html=1;rounded=0;strokeWidth=2;exitX=1;exitY=0.5;exitDx=0;exitDy=0;entryX=0;entryY=0.5;entryDx=0;entryDy=0;" parent="1" source="YS5-fEkslZxsQK353Ww7-45" target="YS5-fEkslZxsQK353Ww7-58" edge="1">
          <mxGeometry width="50" height="50" relative="1" as="geometry">
            <mxPoint x="188" y="791" as="sourcePoint" />
            <mxPoint x="418" y="744" as="targetPoint" />
          </mxGeometry>
        </mxCell>
        <mxCell id="YS5-fEkslZxsQK353Ww7-61" value="" style="group;fillColor=none;fillStyle=solid;" parent="1" vertex="1" connectable="0">
          <mxGeometry x="128" y="893" width="50" height="60" as="geometry" />
        </mxCell>
        <mxCell id="YS5-fEkslZxsQK353Ww7-62" value="&lt;b&gt;Assistant&lt;/b&gt;" style="shape=umlActor;verticalLabelPosition=bottom;verticalAlign=top;html=1;outlineConnect=0;container=0;" parent="YS5-fEkslZxsQK353Ww7-61" vertex="1">
          <mxGeometry width="30" height="60" as="geometry" />
        </mxCell>
        <mxCell id="YS5-fEkslZxsQK353Ww7-63" value="" style="shape=ellipse;html=1;sketch=0;strokeWidth=2;strokeColor=none;container=0;" parent="YS5-fEkslZxsQK353Ww7-61" vertex="1">
          <mxGeometry x="40" y="25" width="10" height="10" as="geometry" />
        </mxCell>
        <mxCell id="YS5-fEkslZxsQK353Ww7-64" value="&lt;span style=&quot;font-size: 14px;&quot;&gt;Update Complaint Status&lt;/span&gt;" style="ellipse;whiteSpace=wrap;html=1;fillColor=none;strokeWidth=2;" parent="1" vertex="1">
          <mxGeometry x="485" y="921" width="120" height="80" as="geometry" />
        </mxCell>
        <mxCell id="YS5-fEkslZxsQK353Ww7-65" value="" style="endArrow=classic;html=1;rounded=0;strokeWidth=2;exitX=1;exitY=0.5;exitDx=0;exitDy=0;entryX=0.008;entryY=0.545;entryDx=0;entryDy=0;entryPerimeter=0;" parent="1" target="YS5-fEkslZxsQK353Ww7-54" edge="1">
          <mxGeometry width="50" height="50" relative="1" as="geometry">
            <mxPoint x="183.00000000000006" y="761.0000000000001" as="sourcePoint" />
            <mxPoint x="414" y="830" as="targetPoint" />
          </mxGeometry>
        </mxCell>
        <mxCell id="YS5-fEkslZxsQK353Ww7-66" value="" style="endArrow=classic;html=1;rounded=0;strokeWidth=2;exitX=1;exitY=0.5;exitDx=0;exitDy=0;entryX=0.5;entryY=0;entryDx=0;entryDy=0;" parent="1" source="YS5-fEkslZxsQK353Ww7-45" target="YS5-fEkslZxsQK353Ww7-64" edge="1">
          <mxGeometry width="50" height="50" relative="1" as="geometry">
            <mxPoint x="193.00000000000006" y="771.0000000000001" as="sourcePoint" />
            <mxPoint x="534" y="893" as="targetPoint" />
          </mxGeometry>
        </mxCell>
        <mxCell id="YS5-fEkslZxsQK353Ww7-67" value="" style="endArrow=classic;html=1;rounded=0;strokeWidth=2;exitX=1;exitY=0.5;exitDx=0;exitDy=0;entryX=0;entryY=0.5;entryDx=0;entryDy=0;" parent="1" source="YS5-fEkslZxsQK353Ww7-63" target="YS5-fEkslZxsQK353Ww7-64" edge="1">
          <mxGeometry width="50" height="50" relative="1" as="geometry">
            <mxPoint x="173.00000000000006" y="921.0000000000001" as="sourcePoint" />
            <mxPoint x="389.9999999999999" y="922.9999999999999" as="targetPoint" />
          </mxGeometry>
        </mxCell>
        <mxCell id="YS5-fEkslZxsQK353Ww7-68" value="" style="endArrow=classic;html=1;rounded=0;strokeWidth=2;exitX=1;exitY=0.5;exitDx=0;exitDy=0;" parent="1" source="YS5-fEkslZxsQK353Ww7-6" target="YS5-fEkslZxsQK353Ww7-64" edge="1">
          <mxGeometry width="50" height="50" relative="1" as="geometry">
            <mxPoint x="183.00000000000006" y="1031" as="sourcePoint" />
            <mxPoint x="405" y="1033" as="targetPoint" />
          </mxGeometry>
        </mxCell>
        <mxCell id="YS5-fEkslZxsQK353Ww7-69" value="&lt;span style=&quot;font-size: 14px;&quot;&gt;Route Complaints&lt;/span&gt;" style="ellipse;whiteSpace=wrap;html=1;fillColor=none;strokeWidth=2;" parent="1" vertex="1">
          <mxGeometry x="577" y="1039" width="109" height="59" as="geometry" />
        </mxCell>
        <mxCell id="YS5-fEkslZxsQK353Ww7-71" value="" style="endArrow=classic;html=1;rounded=0;strokeWidth=2;exitX=1;exitY=0.5;exitDx=0;exitDy=0;" parent="1" source="YS5-fEkslZxsQK353Ww7-80" target="YS5-fEkslZxsQK353Ww7-69" edge="1">
          <mxGeometry width="50" height="50" relative="1" as="geometry">
            <mxPoint x="188" y="1033" as="sourcePoint" />
            <mxPoint x="495" y="1071" as="targetPoint" />
          </mxGeometry>
        </mxCell>
        <mxCell id="YS5-fEkslZxsQK353Ww7-75" value="&lt;font style=&quot;font-size: 14px;&quot;&gt;Notify Constituent&lt;/font&gt;" style="ellipse;whiteSpace=wrap;html=1;fillColor=none;strokeWidth=2;" parent="1" vertex="1">
          <mxGeometry x="698" y="975" width="120" height="80" as="geometry" />
        </mxCell>
        <mxCell id="YS5-fEkslZxsQK353Ww7-78" value="&lt;span style=&quot;font-size: 14px;&quot;&gt;Priortize Complaints&lt;/span&gt;" style="ellipse;whiteSpace=wrap;html=1;fillColor=none;strokeWidth=2;" parent="1" vertex="1">
          <mxGeometry x="463" y="1088.5" width="109" height="59" as="geometry" />
        </mxCell>
        <mxCell id="YS5-fEkslZxsQK353Ww7-79" value="" style="endArrow=classic;html=1;rounded=0;strokeWidth=2;exitX=1;exitY=0.5;exitDx=0;exitDy=0;entryX=0;entryY=0.5;entryDx=0;entryDy=0;" parent="1" source="YS5-fEkslZxsQK353Ww7-80" target="YS5-fEkslZxsQK353Ww7-75" edge="1">
          <mxGeometry width="50" height="50" relative="1" as="geometry">
            <mxPoint x="174" y="1120.5" as="sourcePoint" />
            <mxPoint x="479" y="1047" as="targetPoint" />
          </mxGeometry>
        </mxCell>
        <mxCell id="YS5-fEkslZxsQK353Ww7-80" value="&amp;lt;&amp;lt;actor&amp;gt;&amp;gt;&lt;br&gt;&lt;br&gt;&lt;b&gt;System&lt;/b&gt;" style="html=1;align=center;verticalAlign=middle;dashed=0;whiteSpace=wrap;" parent="1" vertex="1">
          <mxGeometry x="94" y="1092" width="80" height="52" as="geometry" />
        </mxCell>
        <mxCell id="YS5-fEkslZxsQK353Ww7-81" value="" style="endArrow=classic;html=1;rounded=0;strokeWidth=2;exitX=1;exitY=0.5;exitDx=0;exitDy=0;entryX=0;entryY=0.5;entryDx=0;entryDy=0;" parent="1" source="YS5-fEkslZxsQK353Ww7-80" target="YS5-fEkslZxsQK353Ww7-78" edge="1">
          <mxGeometry width="50" height="50" relative="1" as="geometry">
            <mxPoint x="184" y="1037" as="sourcePoint" />
            <mxPoint x="513" y="999" as="targetPoint" />
          </mxGeometry>
        </mxCell>
        <mxCell id="YS5-fEkslZxsQK353Ww7-82" value="&lt;span style=&quot;font-size: 14px;&quot;&gt;Record Survey Response&lt;/span&gt;" style="ellipse;whiteSpace=wrap;html=1;fillColor=none;strokeWidth=2;" parent="1" vertex="1">
          <mxGeometry x="639" y="1142" width="109" height="59" as="geometry" />
        </mxCell>
        <mxCell id="YS5-fEkslZxsQK353Ww7-83" value="" style="endArrow=classic;html=1;rounded=0;strokeWidth=2;exitX=1;exitY=0.5;exitDx=0;exitDy=0;" parent="1" source="YS5-fEkslZxsQK353Ww7-80" target="YS5-fEkslZxsQK353Ww7-82" edge="1">
          <mxGeometry width="50" height="50" relative="1" as="geometry">
            <mxPoint x="184" y="1128" as="sourcePoint" />
            <mxPoint x="516" y="1109" as="targetPoint" />
          </mxGeometry>
        </mxCell>
        <mxCell id="YS5-fEkslZxsQK353Ww7-84" value="&lt;span style=&quot;font-size: 14px;&quot;&gt;Route Miscategorized Complaints&lt;/span&gt;" style="ellipse;whiteSpace=wrap;html=1;fillColor=none;strokeWidth=2;" parent="1" vertex="1">
          <mxGeometry x="408" y="993" width="122" height="60" as="geometry" />
        </mxCell>
        <mxCell id="YS5-fEkslZxsQK353Ww7-86" value="" style="endArrow=classic;html=1;rounded=0;strokeWidth=2;exitX=1;exitY=0.5;exitDx=0;exitDy=0;" parent="1" source="YS5-fEkslZxsQK353Ww7-6" target="YS5-fEkslZxsQK353Ww7-84" edge="1">
          <mxGeometry width="50" height="50" relative="1" as="geometry">
            <mxPoint x="184" y="1037" as="sourcePoint" />
            <mxPoint x="497" y="981" as="targetPoint" />
          </mxGeometry>
        </mxCell>
        <mxCell id="YS5-fEkslZxsQK353Ww7-87" value="&lt;font style=&quot;font-size: 14px;&quot;&gt;&amp;lt;&amp;lt;include&amp;gt;&amp;gt;&lt;/font&gt;" style="html=1;verticalAlign=bottom;labelBackgroundColor=none;endArrow=open;endFill=0;dashed=1;rounded=0;fontSize=12;strokeWidth=2;exitX=1;exitY=0.5;exitDx=0;exitDy=0;" parent="1" source="YS5-fEkslZxsQK353Ww7-64" target="YS5-fEkslZxsQK353Ww7-75" edge="1">
          <mxGeometry width="160" relative="1" as="geometry">
            <mxPoint x="603" y="828" as="sourcePoint" />
            <mxPoint x="751" y="836" as="targetPoint" />
          </mxGeometry>
        </mxCell>
        <mxCell id="YS5-fEkslZxsQK353Ww7-89" value="&amp;lt;&amp;lt;actor&amp;gt;&amp;gt;&lt;br&gt;&lt;br&gt;&lt;b&gt;Video Conferencing Service&lt;/b&gt;" style="html=1;align=center;verticalAlign=middle;dashed=0;whiteSpace=wrap;" parent="1" vertex="1">
          <mxGeometry x="874" y="651" width="172" height="52" as="geometry" />
        </mxCell>
        <mxCell id="YS5-fEkslZxsQK353Ww7-91" value="" style="endArrow=classic;html=1;rounded=0;strokeWidth=2;exitX=0;exitY=0.5;exitDx=0;exitDy=0;entryX=0.992;entryY=0.375;entryDx=0;entryDy=0;entryPerimeter=0;" parent="1" source="YS5-fEkslZxsQK353Ww7-89" target="YS5-fEkslZxsQK353Ww7-50" edge="1">
          <mxGeometry width="50" height="50" relative="1" as="geometry">
            <mxPoint x="778" y="441" as="sourcePoint" />
            <mxPoint x="986" y="562" as="targetPoint" />
          </mxGeometry>
        </mxCell>
        <mxCell id="mggj_KDh0__X-bO1hVRX-1" value="&lt;span style=&quot;font-size: 14px;&quot;&gt;Display Survey Results&lt;/span&gt;" style="ellipse;whiteSpace=wrap;html=1;fillColor=none;strokeWidth=2;" vertex="1" parent="1">
          <mxGeometry x="309" y="1145" width="109" height="59" as="geometry" />
        </mxCell>
        <mxCell id="mggj_KDh0__X-bO1hVRX-2" value="" style="endArrow=classic;html=1;rounded=0;strokeWidth=2;exitX=1;exitY=0.5;exitDx=0;exitDy=0;entryX=0;entryY=0.5;entryDx=0;entryDy=0;" edge="1" parent="1" source="YS5-fEkslZxsQK353Ww7-80" target="mggj_KDh0__X-bO1hVRX-1">
          <mxGeometry width="50" height="50" relative="1" as="geometry">
            <mxPoint x="184" y="1037" as="sourcePoint" />
            <mxPoint x="418" y="1034" as="targetPoint" />
          </mxGeometry>
        </mxCell>
      </root>
    </mxGraphModel>
  </diagram>
</mxfile>
